<?xml version="1.0" encoding="utf-8"?>
<!-- Generator: Adobe Illustrator 27.8.1, SVG Export Plug-In . SVG Version: 6.00 Build 0)  -->
<svg version="1.1" id="Layer_1" xmlns="http://www.w3.org/2000/svg" xmlns:xlink="http://www.w3.org/1999/xlink" x="0px" y="0px"
	 viewBox="0 0 152 34" style="enable-background:new 0 0 152 34;" xml:space="preserve">
<style type="text/css">
	.st0{fill:#435EBE;}
</style>
<g>
	<path class="st0" d="M19.9,28l-0.1-11.6l-5.6,9.5h-2.8l-5.6-9.2V28H0.1V6h5.1l7.7,12.7L20.5,6h5.1l0.1,22H19.9z"/>
	<path class="st0" d="M47.7,23.2V28H30.1V6h17.2v4.8H36.2v3.7H46v4.6h-9.8v4H47.7z"/>
	<path class="st0" d="M51.2,6h10.4c7.3,0,12.3,4.2,12.3,11c0,6.7-5,11-12.3,11H51.2V6z M61.3,23c3.7,0,6.2-2.2,6.2-6s-2.5-6-6.2-6
		h-3.9V23H61.3z"/>
	<path class="st0" d="M77.1,6h6.2v22h-6.2V6z"/>
	<path class="st0" d="M86.6,17c0-6.7,5.1-11.4,12.1-11.4c4,0,7.3,1.5,9.4,4.1l-4,3.6c-1.4-1.7-3.1-2.6-5.2-2.6
		c-3.6,0-6.1,2.5-6.1,6.3s2.5,6.3,6.1,6.3c2.1,0,3.8-0.9,5.2-2.6l4,3.6c-2.1,2.7-5.4,4.1-9.4,4.1C91.7,28.4,86.6,23.7,86.6,17z"/>
	<path class="st0" d="M125.2,23.7h-9.3l-1.7,4.3h-6.3l9.7-22h6.1l9.7,22H127L125.2,23.7z M123.4,19.1l-2.8-7l-2.8,7H123.4z"/>
	<path class="st0" d="M135.2,6h6.2v17h10.5V28h-16.7V6z"/>
</g>
</svg>
